<svg xmlns="http://www.w3.org/2000/svg" width="100" height="108" viewBox="0 0 100 108">
  <defs>
    <radialGradient id="silk" cx="0" cy="0" r="104" gradientUnits="userSpaceOnUse">
      <stop offset="0" stop-color="#c0b8af" stop-opacity=".6"/>
      <stop offset=".3" stop-color="#c0b8af" stop-opacity=".46"/>
      <stop offset=".65" stop-color="#c0b8af" stop-opacity=".3"/>
      <stop offset="1" stop-color="#c0b8af" stop-opacity=".15"/>
    </radialGradient>
    <radialGradient id="glow" cx="110" cy="130" r="150" gradientUnits="userSpaceOnUse">
      <stop offset="0" stop-color="#df5353" stop-opacity=".4"/>
      <stop offset=".45" stop-color="#b92222" stop-opacity=".28"/>
      <stop offset="1" stop-color="#b92222" stop-opacity="0"/>
    </radialGradient>
    <linearGradient id="dew" x2="0" y2="1">
      <stop offset=".35" stop-color="#e4dbc8"/>
      <stop offset="1" stop-color="#b92222" stop-opacity=".7"/>
    </linearGradient>
    <radialGradient id="dew-warm">
      <stop offset=".3" stop-color="#ffedb8"/>
      <stop offset="1" stop-color="#ffb13d"/>
    </radialGradient>
    <radialGradient id="dew-halo">
      <stop offset="0" stop-color="#ffb13d" stop-opacity=".4"/>
      <stop offset="1" stop-color="#ffb13d" stop-opacity="0"/>
    </radialGradient>
  </defs>

  <path d="M0 0L96.5 4.2M0 0L72.2 14M0 0L55.5 23.6M0 0L49.1 37M0 0L40.1 47.8M0 0L30.4 59.6M0 0L19.2 76.8M0 0L5.4 103" fill="none" stroke="url(#silk)" stroke-width=".6" stroke-linecap="round"/>
  <path d="M99.2 0Q96.7 1.7 96.5 4.2Q81 10.7 72.2 14Q61.5 19.4 55.5 23.6Q50.6 29.8 49.1 37Q43.3 41.9 40.1 47.8Q34.1 52.8 30.4 59.6Q23.9 66.6 19.2 76.8Q11.8 87.2 5.4 103Q2.2 103.2 0 106.2" fill="none" stroke="url(#silk)" stroke-width=".6" stroke-linecap="round"/>
  <path d="M7.3 0Q6.6 .1 6.4 .3Q5.4 .7 5 1Q4.2 1.3 3.8 1.6Q3.4 2 3.3 2.4Q2.9 2.8 2.9 3.5Q2.4 3.8 2.1 4.1Q1.6 4.6 1.3 5.4Q.8 6.1 .4 7.2Q.2 7.4 0 8.1M14.5 0Q13.7 .2 13.5 .6Q11.2 1.5 9.8 1.9Q8.4 2.7 7.5 3.2Q7.1 4.2 7.1 5.3Q5.9 5.7 5.4 6.4Q4.7 7.2 4.2 8.2Q3.3 9.3 2.7 10.9Q1.7 12.4 .8 15Q.3 15.2 0 16.1M22.1 0Q21.1 .4 20.9 .9Q17.2 2.3 15.1 2.9Q12.9 4.1 11.8 5Q11.1 6.6 11.1 8.4Q9.7 9.4 8.9 10.6Q7.6 11.8 6.7 13.2Q5.2 14.6 4.2 16.9Q2.6 18.7 1.1 21.9Q.5 22.1 0 23.2M30.6 0Q29.4 .5 29.2 1.3Q24.9 3.2 23.2 4.5Q18.9 6 16.2 6.9Q14.7 8.6 14.7 11.1Q13 12.6 12.5 15Q10.6 16.4 9.7 19Q7.3 20.2 5.6 22.4Q3.4 25.9 1.6 31.5Q.7 31.7 0 33M43 0Q41.6 .7 41.4 1.8Q33.2 4.5 29.7 5.8Q24.3 7.7 21.7 9.2Q20.2 11.9 20.4 15.4Q18.3 17.7 17.4 20.7Q14.3 21.9 12.2 23.9Q9.8 27.6 8.2 33Q4.9 35.1 2.1 39.8Q.8 40 0 41.5M53.3 0Q51.7 .9 51.5 2.2Q43.1 5.7 39 7.6M30.4 12.9Q26.9 15.8 24.9 18.8Q21.9 21.1 20 23.9Q17.2 26.8 16.4 32.1Q12.8 35.7 10.5 42.1Q6.4 47.3 2.9 55Q1.2 55.2 0 57.1M67.6 0Q65.7 1.1 65.5 2.9Q53.3 7.1 47.9 9.3Q39.8 12.6 35.2 15Q31.3 18.5 30.5 23Q27.3 26.4 26 31Q21.4 33 18.3 36Q14.9 42.4 12.9 51.8Q8 58.9 3.6 68.5Q1.4 68.7 0 70.9M78.1 0Q76 1.3 75.8 3.3Q64.9 8.4 60.4 11.7Q47.5 15.2 41.7 17.7Q39.6 23.3 40.1 30.2Q35.4 34.3 33.8 40.3Q28.2 43.5 24.4 48M15.7 62.8Q9.5 70.3 4.3 82.5Q1.7 82.7 0 85.2" fill="none" stroke="url(#silk)" stroke-width=".45" stroke-linecap="round"/>
  <path d="M39 7.6q.2 2.7 .3 4.5q-.6 1.1 -.2 1.8M30.4 12.9q-.1 1 0 1.8M24.4 48q-.3 5.2 -.6 8.6q.8 2.2 .2 3.4M15.7 62.8q.1 1.7 .1 3.1M13.4 86.2q.8 7.5 .2 15.2" fill="none" stroke="url(#silk)" stroke-width=".45" stroke-linecap="round"/>
  <path d="M99.2 0Q96.7 1.7 96.5 4.2Q81 10.7 72.2 14Q61.5 19.4 55.5 23.6Q50.6 29.8 49.1 37Q43.3 41.9 40.1 47.8Q34.1 52.8 30.4 59.6Q23.9 66.6 19.2 76.8Q11.8 87.2 5.4 103Q2.2 103.2 0 106.2M7.3 0Q6.6 .1 6.4 .3Q5.4 .7 5 1Q4.2 1.3 3.8 1.6Q3.4 2 3.3 2.4Q2.9 2.8 2.9 3.5Q2.4 3.8 2.1 4.1Q1.6 4.6 1.3 5.4Q.8 6.1 .4 7.2Q.2 7.4 0 8.1M14.5 0Q13.7 .2 13.5 .6Q11.2 1.5 9.8 1.9Q8.4 2.7 7.5 3.2Q7.1 4.2 7.1 5.3Q5.9 5.7 5.4 6.4Q4.7 7.2 4.2 8.2Q3.3 9.3 2.7 10.9Q1.7 12.4 .8 15Q.3 15.2 0 16.1M22.1 0Q21.1 .4 20.9 .9Q17.2 2.3 15.1 2.9Q12.9 4.1 11.8 5Q11.1 6.6 11.1 8.4Q9.7 9.4 8.9 10.6Q7.6 11.8 6.7 13.2Q5.2 14.6 4.2 16.9Q2.6 18.7 1.1 21.9Q.5 22.1 0 23.2M30.6 0Q29.4 .5 29.2 1.3Q24.9 3.2 23.2 4.5Q18.9 6 16.2 6.9Q14.7 8.6 14.7 11.1Q13 12.6 12.5 15Q10.6 16.4 9.7 19Q7.3 20.2 5.6 22.4Q3.4 25.9 1.6 31.5Q.7 31.7 0 33M43 0Q41.6 .7 41.4 1.8Q33.2 4.5 29.7 5.8Q24.3 7.7 21.7 9.2Q20.2 11.9 20.4 15.4Q18.3 17.7 17.4 20.7Q14.3 21.9 12.2 23.9Q9.8 27.6 8.2 33Q4.9 35.1 2.1 39.8Q.8 40 0 41.5M53.3 0Q51.7 .9 51.5 2.2Q43.1 5.7 39 7.6M30.4 12.9Q26.9 15.8 24.9 18.8Q21.9 21.1 20 23.9Q17.2 26.8 16.4 32.1Q12.8 35.7 10.5 42.1Q6.4 47.3 2.9 55Q1.2 55.2 0 57.1M67.6 0Q65.7 1.1 65.5 2.9Q53.3 7.1 47.9 9.3Q39.8 12.6 35.2 15Q31.3 18.5 30.5 23Q27.3 26.4 26 31Q21.4 33 18.3 36Q14.9 42.4 12.9 51.8Q8 58.9 3.6 68.5Q1.4 68.7 0 70.9M78.1 0Q76 1.3 75.8 3.3Q64.9 8.4 60.4 11.7Q47.5 15.2 41.7 17.7Q39.6 23.3 40.1 30.2Q35.4 34.3 33.8 40.3Q28.2 43.5 24.4 48M15.7 62.8Q9.5 70.3 4.3 82.5Q1.7 82.7 0 85.2M39 7.6q.2 2.7 .3 4.5q-.6 1.1 -.2 1.8M30.4 12.9q-.1 1 0 1.8M24.4 48q-.3 5.2 -.6 8.6q.8 2.2 .2 3.4M15.7 62.8q.1 1.7 .1 3.1M13.4 86.2q.8 7.5 .2 15.2" fill="none" stroke="url(#glow)" stroke-width=".35" stroke-linecap="round" transform="translate(0 .3)"/>
  <path d="M38.4 49.3Q34.4 53 31.6 57.6M28.5 61.8Q24.1 67 20.6 73.8M32.2 41.3Q28.5 43.7 25.6 46.7M44.9 41.1Q42.5 43.7 40.8 46.6" fill="none" stroke="#b92222" stroke-opacity=".4" stroke-width=".35" stroke-linecap="round" transform="translate(0 .3)"/>
  <path d="M29.2 1.3Q24.9 3.2 23.2 4.5M23.2 4.5Q18.9 6 16.2 6.9M16.2 6.9Q14.7 8.6 14.7 11.1M14.7 11.1Q13 12.6 12.5 15M12.5 15Q10.6 16.4 9.7 19M9.7 19Q7.3 20.2 5.6 22.4M5.6 22.4Q3.4 25.9 1.6 31.5M41.4 1.8Q33.2 4.5 29.7 5.8M29.7 5.8Q24.3 7.7 21.7 9.2M21.7 9.2Q20.2 11.9 20.4 15.4M20.4 15.4Q18.3 17.7 17.4 20.7M17.4 20.7Q14.3 21.9 12.2 23.9M12.2 23.9Q9.8 27.6 8.2 33M8.2 33Q4.9 35.1 2.1 39.8" fill="none" stroke="#c0b8af" stroke-opacity=".45" stroke-width=".7" stroke-dasharray="0 1.9" stroke-linecap="round"/>

  <circle cx="20.6" cy="12.3" r="2.2" fill="url(#dew-halo)"/>
  <circle cx="20.6" cy="12.3" r=".6" fill="url(#dew-warm)"/>
  <circle cx="55" cy="6.8" r=".5" fill="url(#dew)"/>
  <circle cx="10.9" cy="69.8" r=".5" fill="url(#dew)"/>
  <circle cx="7.5" cy="20.7" r=".5" fill="url(#dew)"/>
  <circle cx="21" cy="33.9" r=".5" fill="url(#dew)"/>
  <circle cx="13.6" cy="101.6" r=".5" fill="url(#dew)"/>
</svg>
