<?xml version="1.0" encoding="UTF-8" standalone="no"?><!DOCTYPE svg PUBLIC "-//W3C//DTD SVG 1.1//EN" "http://www.w3.org/Graphics/SVG/1.1/DTD/svg11.dtd"><svg width="100%" height="100%" viewBox="0 0 53 53" version="1.1" xmlns="http://www.w3.org/2000/svg" xmlns:xlink="http://www.w3.org/1999/xlink" xml:space="preserve" xmlns:serif="http://www.serif.com/" style="fill-rule:evenodd;clip-rule:evenodd;stroke-linejoin:round;stroke-miterlimit:2;"><rect id="Artboard1" x="0" y="0" width="52.659" height="52.659" style="fill:none;"/><g><path d="M24.633,42.6c0.157,0.025 0.246,0.15 0.407,0.382c0.053,0.076 0.106,0.153 0.159,0.23c0.102,0.151 0.207,0.307 0.32,0.453l0.095,0.125c0.397,0.51 0.435,0.588 0.426,0.644c-0.028,0.179 -0.218,0.271 -0.42,0.37c-0.06,0.03 -0.124,0.06 -0.18,0.093c-0.16,0.09 -0.28,0.148 -0.376,0.194c-0.22,0.104 -0.259,0.124 -0.284,0.286c-0.012,0.082 0.07,0.141 0.258,0.256c0.163,0.1 0.254,0.218 0.463,0.595c0.215,0.426 0.311,0.858 0.303,1.363l-0.002,0.069c-0.004,0.125 -0.004,0.183 0.02,0.188c0.065,0.008 0.172,-0.024 0.258,-0.05c0.086,-0.026 0.155,-0.048 0.207,-0.04l0.002,-0.002c0.082,0.013 0.195,0.116 0.18,0.217c-0.008,0.056 -0.05,0.117 -0.469,0.269c-0.072,0.026 -0.159,0.06 -0.25,0.096c-0.317,0.126 -0.54,0.21 -0.66,0.21c-0.01,-0 -0.02,-0.001 -0.028,-0.002c-0.234,-0.036 -0.305,-0.213 -0.385,-0.624c-0.008,-0.043 -0.017,-0.117 -0.025,-0.221c-0.04,-0.445 -0.126,-1.37 -0.518,-1.758l-0.036,-0.04c-0.063,-0.077 -0.18,-0.218 -0.404,-0.253c-0.028,-0.004 -0.057,-0.003 -0.084,0.002c-0.05,0.006 -0.109,0.013 -0.15,-0.03c-0.04,-0.044 -0.036,-0.106 -0.03,-0.15c0.008,-0.045 0.014,-0.087 0.561,-0.327c0.274,-0.12 0.589,-0.246 0.746,-0.305c0.013,-0.004 0.034,-0.016 0.044,-0.05c0.01,-0.038 0.007,-0.079 -0.009,-0.114l-0.037,-0.042c-0.068,-0.075 -0.183,-0.2 -0.43,-0.72c-0.223,-0.468 -0.304,-0.55 -0.332,-0.556c-0.056,0.006 -0.109,0.021 -0.16,0.043c-0.154,0.058 -0.213,0.078 -0.265,0.07c-0.046,-0.005 -0.088,-0.028 -0.116,-0.063c-0.021,-0.028 -0.029,-0.063 -0.023,-0.097c0.013,-0.09 0.089,-0.18 0.422,-0.34c0.13,-0.062 0.263,-0.13 0.38,-0.191c0.295,-0.154 0.37,-0.19 0.422,-0.18m7.581,3.979c0.09,-0.016 0.185,0.074 0.198,0.129c0.019,0.083 -0.043,0.171 -0.084,0.23l-0.017,0.024l-0.573,0.888c-0.034,0.057 -0.095,0.094 -0.161,0.098l-0.004,-0l-0.11,-0.01c-0.109,-0.042 -0.215,-0.087 -0.32,-0.136c-0.151,-0.073 -0.308,-0.134 -0.469,-0.18c-0.907,-0.237 -1.423,0.231 -1.848,0.773c-0.064,0.083 -0.125,0.106 -0.173,0.106c-0.024,-0.002 -0.048,-0.007 -0.069,-0.016c-0.077,-0.038 -0.128,-0.143 -0.114,-0.199c0.057,-0.205 0.549,-1.085 1.76,-1.36c0.47,-0.107 0.929,0.026 1.204,0.107c0.09,0.026 0.192,0.055 0.218,0.051c0.106,-0.024 0.334,-0.308 0.406,-0.417c0.025,-0.04 0.062,-0.078 0.154,-0.089l0.002,0.001Z" style="fill:#fff;fill-rule:nonzero;"/><path d="M21.211,42.33c0.194,-0.033 0.438,-0.032 0.668,0.003c0.238,0.037 0.586,0.195 0.854,0.528c0.205,0.255 0.428,0.698 0.324,1.364l-0.392,2.522c-0.03,0.194 -0.042,0.319 -0.035,0.374c0.003,0.036 0.026,0.071 0.07,0.106c0.483,0.38 0.65,0.499 0.71,0.509c0.159,0.024 0.317,-0.08 0.471,-0.18c0.154,-0.101 0.299,-0.196 0.44,-0.154l0.002,-0c0.039,0.008 0.067,0.042 0.07,0.083c0.013,0.14 -0.273,0.396 -0.624,0.561c-0.167,0.081 -0.322,0.185 -0.46,0.31c-0.069,0.059 -0.135,0.115 -0.196,0.115c-0.028,0.001 -0.056,-0.013 -0.082,-0.042c-0.571,-0.668 -1.234,-0.838 -1.684,-0.908c-0.34,-0.053 -0.739,0.09 -0.953,0.167c-0.121,0.044 -0.165,0.059 -0.202,0.053c-0.06,-0.01 -0.104,-0.046 -0.12,-0.096c-0.016,-0.054 -0.007,-0.145 0.13,-0.27c0.299,-0.287 0.722,-0.35 1.031,-0.397c0.122,-0.018 0.29,-0.043 0.31,-0.076c0.13,-0.84 -0.474,-1.369 -0.875,-1.719c-0.21,-0.183 -0.348,-0.304 -0.33,-0.428c0.011,-0.08 0.069,-0.146 0.147,-0.166c0.091,-0.025 0.188,-0.027 0.281,-0.007c0.317,0.05 0.52,0.225 0.684,0.368c0.098,0.086 0.185,0.16 0.27,0.186c0.016,-0.053 0.028,-0.107 0.036,-0.161l0.176,-1.129c0.097,-0.63 -0.099,-0.973 -0.6,-1.05c-0.341,-0.054 -0.434,-0.098 -0.472,-0.15c-0.019,-0.023 -0.026,-0.054 -0.02,-0.082c0.016,-0.113 0.145,-0.193 0.371,-0.233m10.404,0.319c0.073,-0.017 0.188,0.024 0.345,0.123l0.683,0.43c0.042,0.026 0.081,0.049 0.117,0.068c0.09,0.05 0.163,0.09 0.18,0.165c0.019,0.081 -0.04,0.201 -0.207,0.412l-0.311,0.383l-0.1,0.124c-0.126,0.157 -0.208,0.261 -0.246,0.312c-0.035,0.04 -0.043,0.071 -0.033,0.12c0.013,0.015 0.065,0.048 0.11,0.078c0.06,0.039 0.143,0.093 0.238,0.165l0.643,0.482c0.27,0.198 0.42,0.52 0.541,0.78c0.061,0.132 0.145,0.311 0.192,0.317c0.01,0.001 0.031,-0.01 0.067,-0.055c0.027,-0.039 0.068,-0.067 0.115,-0.078l-0.002,-0c0.068,-0.01 0.135,0.023 0.17,0.083c0.017,0.033 0.047,0.12 -0.061,0.23c-0.159,0.159 -0.267,0.29 -0.354,0.397c-0.122,0.15 -0.203,0.248 -0.315,0.273c-0.033,0.007 -0.067,0.011 -0.1,0.012c-0.274,-0 -0.425,-0.288 -0.583,-0.591c-0.123,-0.235 -0.25,-0.478 -0.442,-0.618l-0.846,-0.617c-0.084,-0.063 -0.168,-0.123 -0.253,-0.182c-0.155,-0.11 -0.22,-0.156 -0.234,-0.219c-0.021,-0.091 0.033,-0.18 0.43,-0.595c0.486,-0.508 0.491,-0.687 0.482,-0.731c-0.001,-0.002 -0.008,-0.022 -0.069,-0.068l-0.347,-0.247c-0.04,-0.025 -0.065,-0.022 -0.072,-0.02c-0.039,0.008 -0.12,0.059 -0.29,0.25l-0.435,0.504c-0.018,0.02 -0.058,0.05 -0.13,0.03c-0.08,-0.02 -0.216,-0.113 -0.235,-0.194c-0.02,-0.09 0.048,-0.179 0.217,-0.357l0.846,-0.932l0.055,-0.06c0.078,-0.084 0.14,-0.152 0.234,-0.174m-1.536,-0.477c0.07,-0.019 0.145,0.003 0.195,0.056c0.034,0.038 0.045,0.092 0.028,0.141c-0.59,1.543 -0.569,1.837 -0.41,2.534c0.11,0.488 0.088,0.983 -0.063,1.396c-0.128,0.346 -0.338,0.598 -0.534,0.644c-0.034,0.007 -0.069,0.011 -0.103,0.012c-0.074,-0 -0.127,-0.024 -0.16,-0.072c-0.057,-0.081 -0.031,-0.217 0.066,-0.362c0.08,-0.121 0.108,-0.218 0.074,-0.267c-0.026,-0.037 -0.087,-0.047 -0.12,-0.04l0.001,-0c-0.068,0.018 -0.133,0.045 -0.193,0.08c-0.105,0.054 -0.236,0.12 -0.44,0.166c-0.058,0.015 -0.118,0.02 -0.177,0.015c-0.086,-0.014 -0.112,-0.07 -0.12,-0.104c-0.042,-0.19 0.037,-0.362 0.563,-0.585c0.07,-0.03 0.16,-0.044 0.247,-0.056c0.083,-0.013 0.21,-0.033 0.232,-0.065c-0,-0.001 0.003,-0.004 -0,-0.014l-0.07,-0.31c-0.034,-0.12 -0.101,-0.228 -0.194,-0.31c-0.141,-0.122 -0.334,-0.165 -0.512,-0.113c-0.019,0.005 -0.135,0.044 -0.22,0.074c-0.127,0.042 -0.18,0.06 -0.197,0.064c-0.059,0.015 -0.121,0.017 -0.18,0.006c-0.058,-0.016 -0.103,-0.063 -0.115,-0.121c-0.03,-0.135 0.143,-0.211 0.407,-0.325c0.38,-0.164 0.95,-0.412 1.048,-0.912c0.053,-0.264 0.15,-0.423 0.214,-0.528c0.037,-0.06 0.066,-0.108 0.06,-0.134c-0.003,-0.018 -0.007,-0.031 -0.062,-0.019c-0.055,0.012 -0.093,0.053 -0.144,0.108c-0.083,0.089 -0.186,0.2 -0.412,0.25c-0.259,0.06 -0.46,-0.027 -0.637,-0.103c-0.162,-0.07 -0.303,-0.13 -0.475,-0.091c-0.18,0.041 -0.236,0.085 -0.28,0.121c-0.03,0.025 -0.063,0.05 -0.118,0.063c-0.121,0.028 -0.181,-0.034 -0.197,-0.103c-0.037,-0.162 0.134,-0.437 0.495,-0.519c0.129,-0.029 0.296,-0.04 0.501,-0.034c0.195,0.007 0.382,-0.011 0.572,-0.055c0.265,-0.06 0.523,-0.162 0.773,-0.262c0.231,-0.092 0.45,-0.178 0.657,-0.226m-13.894,-2.151c0.063,-0.108 0.398,-0.106 0.587,-0.088c0.26,0.025 0.656,0.104 1.072,0.348c0.67,0.394 0.956,0.796 1.145,1.062c0.079,0.111 0.14,0.198 0.198,0.232c0.073,0.042 0.254,-0 0.4,-0.033c0.176,-0.04 0.328,-0.075 0.42,-0.021l0.001,-0.002c0.052,0.032 0.122,0.123 0.048,0.269c-0.062,0.117 -0.17,0.13 -0.273,0.142c-0.156,0.02 -0.35,0.043 -0.558,0.398l-1.86,3.172c-0.094,0.162 -0.116,0.29 -0.056,0.325c0.1,0.06 0.398,0.02 0.575,-0.005c0.173,-0.023 0.23,-0.03 0.269,-0.006c0.11,0.064 0.145,0.142 0.154,0.197c0.01,0.067 -0.009,0.136 -0.05,0.19c-0.06,0.083 -0.16,0.085 -0.314,0.086l-0.124,0.003l-0.008,-0c-0.184,0.005 -0.383,0.01 -0.572,0.01c-0.378,-0 -0.714,-0.016 -0.801,-0.067c-0.508,-0.298 -0.272,-0.913 -0.049,-1.35l1.577,-2.69c0.257,-0.436 0.249,-1.068 -0.54,-1.531c-0.084,-0.05 -0.532,-0.3 -1.101,-0.398c-0.055,-0.01 -0.102,-0.05 -0.131,-0.111c-0.012,-0.025 -0.036,-0.087 -0.01,-0.133m18.296,0.643c0.06,-0.04 0.183,0.005 0.23,0.056l0.019,0.02l0.002,0.111l-0,0.007c-0.114,0.743 0.062,1.509 0.496,2.157c0.681,1.019 2.047,1.598 3.338,0.734l0.037,-0.026c0.352,-0.234 0.883,-0.587 1.201,-1.564c0.031,-0.103 0.097,-0.192 0.186,-0.252c0.082,-0.056 0.184,0.014 0.243,0.102c0.101,0.151 0.095,0.611 -0.09,1.121c-0.168,0.458 -0.537,1.118 -1.345,1.659c-0.472,0.318 -1.027,0.49 -1.595,0.496c-0.82,-0 -1.673,-0.382 -2.322,-1.35c-0.518,-0.775 -0.626,-1.621 -0.643,-2.057c-0.024,-0.583 0.081,-1.106 0.244,-1.214" style="fill:#fff;fill-rule:nonzero;"/><path d="M16.178,40.741c0.215,0.004 0.558,0.059 0.968,0.299c0.733,0.43 0.622,0.801 0.54,0.941c-0.07,0.121 -0.4,0.233 -0.935,0.403c-0.27,0.086 -0.635,0.202 -0.717,0.266c0.007,0.008 0.024,0.02 0.05,0.036l0.757,0.472c0.069,0.04 0.1,0.115 0.082,0.203c-0.01,0.042 -0.026,0.082 -0.048,0.12l-0.183,0.262c-0.059,0.08 -0.179,0.117 -0.313,0.024l-1.084,-0.723c-0.088,-0.052 -0.193,-0.062 -0.288,-0.03c-0.108,0.039 -0.198,0.116 -0.253,0.217c-0.096,0.164 -0.11,0.301 -0.043,0.421l0.664,1l0.021,0.031c0.01,0.017 0.011,0.019 0.027,0.028c0.012,0.007 0.03,0.008 0.037,0.006l0.278,-0.035c0.052,-0.014 0.108,-0.006 0.155,0.023l0.001,-0c0.047,0.028 0.082,0.075 0.096,0.129c0.014,0.053 0.007,0.111 -0.02,0.16c-0.035,0.055 -0.093,0.091 -0.158,0.098l-0.812,0.07l-0.022,-0c-0.041,0.001 -0.081,-0.008 -0.116,-0.027c-0.043,-0.024 -0.075,-0.063 -0.091,-0.109l-0.596,-1.252c-0.035,-0.077 -0.09,-0.122 -0.157,-0.125c-0.071,-0.001 -0.137,0.037 -0.17,0.1c-0.043,0.074 -0.05,0.146 -0.06,0.229c-0.009,0.088 -0.02,0.189 -0.08,0.293c-0.139,0.238 -0.462,0.286 -0.657,0.172c-0.21,-0.123 -0.288,-0.46 -0.193,-0.62c0.087,-0.148 0.193,-0.289 0.625,-0.514l2.931,-1.532c0.07,-0.046 0.131,-0.105 0.178,-0.175c0.023,-0.043 0.03,-0.092 0.02,-0.139c-0.013,-0.054 -0.048,-0.1 -0.096,-0.127c-0.067,-0.04 -0.207,-0.122 -0.547,-0.033c-0.067,0.018 -0.138,0.01 -0.198,-0.024c-0.15,-0.089 -0.188,-0.231 -0.1,-0.382c0.057,-0.097 0.26,-0.16 0.507,-0.156m21.072,-2.141c0.112,-0.061 0.23,-0.027 0.275,0.04c0.079,0.118 0.018,0.431 -0.087,0.932c-0.059,0.28 -0.148,0.705 -0.106,0.773c0.006,0.009 0.017,0.026 0.089,-0.003c0.076,-0.03 0.183,-0.1 0.294,-0.175c0.337,-0.225 0.367,-0.296 0.372,-0.359c0.008,-0.114 0.046,-0.194 0.116,-0.24c0.131,-0.088 0.206,0.002 0.226,0.032c0.031,0.046 0.04,0.131 -0.007,0.444c-0.018,0.126 0.003,0.291 0.021,0.424c0.015,0.11 0.026,0.197 0.015,0.252l-0.004,0.02c-0.01,0.076 -0.033,0.232 -0.232,0.365l-1.012,0.677l-0.027,0.02c-0.056,0.04 -0.131,0.096 -0.228,0.079c-0.072,-0.012 -0.137,-0.062 -0.197,-0.152c-0.13,-0.196 -0.13,-0.903 -0.055,-1.473c0.009,-0.047 -0.002,-0.074 -0.008,-0.086c-0.045,-0.01 -0.09,-0.011 -0.135,-0.005c-0.314,0.01 -0.532,0.062 -0.598,0.099c-0.008,0.025 -0.012,0.113 0.05,0.288l0.802,2.301c0.03,0.08 0.118,0.327 -0.063,0.448c-0.037,0.025 -0.079,0.039 -0.123,0.04c-0.063,-0 -0.138,-0.033 -0.21,-0.143l-0.937,-1.383l0.002,-0.001c-0.127,-0.19 -0.22,-0.365 -0.161,-0.756c0.026,-0.18 0.118,-0.49 0.215,-0.815c0.04,-0.129 0.078,-0.26 0.112,-0.382c0.013,-0.05 0.024,-0.094 0.033,-0.132c0.022,-0.096 0.035,-0.155 0.08,-0.185c0.045,-0.03 0.1,-0.03 0.165,-0.03l0.052,-0l0.02,-0.002c0.114,-0.007 0.46,-0.029 0.865,-0.3c0.224,-0.15 0.276,-0.339 0.31,-0.464c0.018,-0.06 0.03,-0.106 0.06,-0.136l0.016,-0.012Zm-29.094,-3.908c0.161,-0.117 0.479,0.037 0.631,0.111c0.06,0.03 0.115,0.076 0.173,0.124c0.165,0.138 0.283,0.22 0.427,0.116c0.63,-0.468 1.514,-0.436 2.07,-0.207l1.33,0.548c0.055,0.022 0.334,0.14 0.405,0.239c0.12,0.165 0.043,0.4 -0.16,0.893l-0.018,0.04c-0.018,0.042 -0.041,0.093 -0.035,0.103c0.005,0.004 0.034,0.018 0.055,0.029l0.031,0.016l0.942,0.454c0.159,0.062 0.296,0.172 0.393,0.315c0.058,0.08 0.06,0.238 0.057,0.487c-0.003,0.15 -0.006,0.355 0.03,0.404c0.138,0.19 0.308,0.252 0.445,0.303c0.101,0.038 0.189,0.07 0.242,0.143c0.057,0.08 0.036,0.184 -0.052,0.247c-0.071,0.053 -0.128,0.035 -0.25,-0.002c-0.044,-0.014 -0.102,-0.032 -0.176,-0.052l-0.035,-0.009c-0.22,-0.055 -0.494,-0.125 -0.617,-0.036l-3.179,2.309c-0.052,0.041 -0.094,0.093 -0.125,0.152c-0.026,0.051 -0.034,0.098 -0.02,0.117c0.032,0.019 0.065,0.037 0.1,0.053l0.001,0.001c0.076,0.037 0.147,0.071 0.18,0.118c0.035,0.048 0.039,0.11 0.01,0.174c-0.022,0.048 -0.056,0.089 -0.099,0.12c-0.016,0.01 -0.035,0.016 -0.053,0.017c-0.047,-0.006 -0.092,-0.022 -0.131,-0.048l-0.07,-0.036c-0.306,-0.156 -0.64,-0.333 -0.729,-0.455c-0.116,-0.161 -0.1,-0.392 0.047,-0.65c0.145,-0.253 0.406,-0.521 0.757,-0.776l2.608,-1.894c0.066,-0.059 0.115,-0.134 0.143,-0.218c0.012,-0.03 0.025,-0.057 0.038,-0.082c0.137,-0.27 0.144,-0.35 0.11,-0.397c-0.05,-0.053 -0.107,-0.097 -0.17,-0.132l-0.727,-0.377l-0.91,0.66c-0.126,0.093 -0.255,0.23 -0.159,0.364l0.39,0.537c0.036,0.043 0.062,0.093 0.078,0.148c0.013,0.059 -0.003,0.11 -0.046,0.142c-0.115,0.083 -0.852,-0.227 -1.028,-0.47l-0.013,-0.017c-0.022,-0.032 -0.042,-0.06 -0.062,-0.064c-0.01,-0.002 -0.04,-0 -0.104,0.047l-1.229,0.892c-0.059,0.046 -0.091,0.119 -0.086,0.194c0.053,0.07 0.182,0.197 0.465,0.29c0.048,0.016 0.083,0.058 0.092,0.109c0.013,0.085 -0.047,0.19 -0.095,0.224c-0.046,0.034 -0.115,0.03 -0.23,-0.017l-1.159,-0.4c-0.102,-0.035 -0.191,-0.1 -0.254,-0.186c-0.102,-0.14 0.055,-0.934 0.167,-1.015c0.054,-0.039 0.126,-0.041 0.202,-0.043c0.09,-0.002 0.193,-0.005 0.279,-0.068l0.889,-0.646c0.235,-0.172 0.317,-0.315 0.245,-0.431l-0.375,-0.588c-0.058,-0.093 -0.122,-0.199 -0.033,-0.263c0.047,-0.035 0.41,-0.098 0.542,-0.067c0.106,0.012 0.238,0.123 0.382,0.321c0.06,0.085 0.124,0.172 0.192,0.211c0.044,0.026 0.11,0.045 0.222,-0.037l1.12,-0.814c0.122,-0.087 0.187,-0.149 0.214,-0.198c0.017,-0.033 0.02,-0.062 -0.02,-0.116c-0.004,-0.006 -0.028,-0.037 -0.094,-0.063l-0.91,-0.378c-0.095,-0.04 -0.398,-0.075 -1.13,0.457l-1.657,1.203c-0.345,0.25 -0.579,0.288 -0.75,0.316c-0.106,0.016 -0.183,0.03 -0.257,0.083c-0.012,0.015 0.002,0.085 0.018,0.109c0.114,0.165 0.218,0.26 0.287,0.324c0.028,0.026 0.056,0.053 0.082,0.083c0.057,0.08 0.08,0.136 0.072,0.183c-0.005,0.026 -0.019,0.049 -0.04,0.065c-0.075,0.055 -0.246,0.07 -0.423,0.037c-0.124,-0.022 -0.354,-0.09 -0.495,-0.285c-0.105,-0.145 -0.178,-0.365 -0.248,-0.579c-0.055,-0.166 -0.107,-0.324 -0.162,-0.4c-0.171,-0.25 -0.416,-0.438 -0.7,-0.538c-0.071,-0.027 -0.118,-0.045 -0.145,-0.082c-0.077,-0.106 -0.07,-0.192 0.022,-0.258c0.147,-0.107 0.845,0.15 1.141,0.284c0.46,0.21 0.747,0.223 0.988,0.048c0.73,-0.53 0.323,-1.166 0.235,-1.289c-0.01,-0.013 -0.041,-0.03 -0.065,-0.043c-0.034,-0.015 -0.064,-0.037 -0.087,-0.065c-0.024,-0.033 -0.024,-0.077 -0.001,-0.11c0.016,-0.026 0.038,-0.048 0.064,-0.063m18.3,-17.858c1.638,-0 5.112,0.482 6.718,0.559c0.08,0.005 0.142,0.074 0.14,0.155c-0.08,1.803 -1.559,3.84 -2.397,4.526c-0.02,0.016 -0.045,0.025 -0.071,0.025c-0.042,-0 -0.081,-0.025 -0.099,-0.063c-0.62,-1.323 -2.212,-2.913 -6.265,-2.734c-1.999,0.089 -4.027,1.247 -4.027,5.638c-0,5.455 3.22,8.052 6.702,8.052c1.896,-0 3.276,-0.77 3.276,-2.797c-0,-2.026 -1.614,-2.892 -4.393,-2.892c-0.273,-0 -0.533,0.013 -0.789,0.03c-0.006,-0 -0.011,0 -0.016,0c-0.115,0 -0.21,-0.095 -0.21,-0.21c0,-0.027 0.005,-0.053 0.016,-0.078c0.366,-0.927 0.778,-1.697 1.3,-2.095c0.052,-0.042 0.118,-0.064 0.185,-0.063l6.43,-0.024c0.17,-0 0.307,0.139 0.304,0.308c-0.026,1.693 -0.28,3.538 -1.237,5.143c-0.029,0.047 -0.045,0.101 -0.045,0.157c0,0.11 0.062,0.213 0.16,0.265c0.782,0.424 1.635,0.904 2.253,1.248c0.234,0.13 0.27,0.452 0.069,0.63c-2.699,2.386 -5.527,3.038 -9.33,2.976c-3.662,-0.06 -8.851,-2.78 -8.851,-8.677l-0,0.001c-0,-5.117 3.792,-10.08 10.177,-10.08" style="fill:#fff;fill-rule:nonzero;"/><path d="M26.33,12.953c3.548,-0.009 6.956,1.403 9.459,3.918c2.515,2.503 3.926,5.911 3.918,9.46c0.008,3.547 -1.404,6.955 -3.918,9.458c-2.503,2.515 -5.912,3.927 -9.46,3.919c-3.548,0.008 -6.956,-1.404 -9.458,-3.919c-2.516,-2.503 -3.928,-5.911 -3.919,-9.459c-0.009,-3.549 1.403,-6.957 3.919,-9.459c2.502,-2.515 5.91,-3.927 9.459,-3.918m-0,0.502c-7.1,-0 -12.876,5.776 -12.876,12.875c-0,7.099 5.776,12.876 12.876,12.876c7.1,-0 12.875,-5.776 12.875,-12.876c-0,-7.1 -5.775,-12.875 -12.875,-12.875" style="fill:#fff;"/><path d="M30.623,4.914c0.06,-0.175 0.327,-0.18 0.817,-0.012c0.338,0.116 0.608,0.335 0.762,0.617c0.169,0.311 0.19,0.68 0.056,1.067l-0.932,2.722c-0.066,0.195 0.01,0.443 0.202,0.665c0.239,0.273 0.711,0.553 1.258,0.446c0.413,-0.082 0.986,-0.416 1.374,-1.549c0.646,-1.886 0.001,-2.476 -0.715,-2.803c-0.191,-0.089 -0.268,-0.161 -0.246,-0.228c0.025,-0.07 0.247,-0.164 0.75,0.008c1.268,0.434 1.7,1.643 1.156,3.233c-0.562,1.642 -1.91,2.018 -2.997,1.663c-0.171,-0.068 -0.338,-0.145 -0.5,-0.23c-0.118,-0.063 -0.239,-0.12 -0.362,-0.17c-0.082,-0.027 -0.362,-0.088 -0.537,-0.065c-0.178,0.022 -0.346,0.037 -0.494,0.051c-0.694,0.064 -1.113,0.103 -1.278,0.584c-0.126,0.367 0.033,0.676 0.414,0.806c0.334,0.115 0.75,0.027 1.19,-0.066c0.49,-0.104 0.995,-0.21 1.45,-0.055c0.363,0.124 0.644,0.327 0.812,0.584c0.158,0.242 0.2,0.51 0.115,0.754c-0.025,0.077 -0.065,0.148 -0.118,0.21c1.448,0.713 2.769,1.661 3.91,2.805c1.834,1.827 3.15,4.109 3.812,6.613c0.116,0.44 0.345,0.842 0.67,1.161l2.403,2.351l-2.276,2.276c-0.336,0.336 -0.568,0.761 -0.67,1.225c-0.805,3.575 -2.934,6.758 -6.143,8.956c-1.637,1.119 -3.492,1.878 -5.443,2.227c-4.91,0.883 -9.702,-0.644 -13.112,-4.053c-1.962,-1.954 -3.329,-4.426 -3.939,-7.126c-0.102,-0.466 -0.335,-0.892 -0.671,-1.229l-2.276,-2.276l2.404,-2.353c0.324,-0.316 0.554,-0.716 0.669,-1.155c0.641,-2.43 1.899,-4.653 3.652,-6.453c3.407,-3.514 8.354,-5.102 13.17,-4.23c-0.119,-0.083 -0.223,-0.185 -0.307,-0.301c-0.185,-0.249 -0.233,-0.573 -0.13,-0.864c0.186,-0.542 0.648,-0.634 1.055,-0.714c0.339,-0.067 0.631,-0.125 0.73,-0.413c0.156,-0.456 -0.106,-0.835 -0.317,-1.14c-0.133,-0.19 -0.237,-0.34 -0.195,-0.46c0.014,-0.044 0.041,-0.072 0.08,-0.083c0.043,-0.011 0.089,-0.007 0.131,0.012c0.097,0.032 0.246,0.18 0.367,0.3c0.06,0.058 0.133,0.13 0.152,0.138c0.042,0.013 0.086,0.024 0.13,0.004c0.057,-0.027 0.106,-0.1 0.147,-0.218c0.055,-0.161 -0.049,-0.53 -0.28,-0.986c-0.315,-0.626 -0.323,-0.778 -0.303,-0.838c0.012,-0.039 0.046,-0.066 0.087,-0.069c0.051,-0.005 0.102,0.003 0.15,0.024c0.077,0.025 0.167,0.148 0.282,0.383c0.091,0.186 0.2,0.302 0.328,0.347c0.01,0.004 0.057,0.005 0.11,-0.012c0.041,-0.014 0.095,-0.041 0.114,-0.098c0.459,-1.34 -0.156,-1.643 -0.487,-1.804c-0.12,-0.06 -0.208,-0.102 -0.181,-0.179m-4.31,7.29c-7.764,0.009 -14.101,6.307 -14.11,14.11c-0.009,7.803 6.34,14.152 14.143,14.143c7.764,-0.009 14.101,-6.346 14.11,-14.11c0.009,-7.802 -6.34,-14.152 -14.143,-14.143m5.304,-0.022c-0.32,-0.11 -0.683,-0.082 -1.067,-0.052c-0.128,0.01 -0.257,0.019 -0.386,0.025c0.59,0.158 1.168,0.353 1.733,0.585l-0.014,-0.118c-0.021,-0.194 -0.04,-0.363 -0.266,-0.44" style="fill:#fff;"/><path d="M44.683,36.356c0.034,-0.018 0.091,-0.027 0.169,0.028l-0.001,-0.001c0.149,0.108 0.649,1.395 -0.372,2.802c-0.176,0.243 -0.664,0.838 -1.39,1.113c-0.242,0.094 -0.498,0.143 -0.757,0.144c-0.474,-0 -0.944,-0.169 -1.408,-0.505c-0.326,-0.248 -0.596,-0.561 -0.791,-0.92c-0.217,-0.406 -0.252,-0.748 -0.097,-0.96c0.027,-0.042 0.075,-0.065 0.125,-0.062c0.036,0.001 0.068,0.022 0.085,0.055c0.249,0.504 0.624,0.817 0.923,1.035c0.445,0.322 0.989,0.44 1.53,0.327c0.522,-0.112 0.986,-0.412 1.301,-0.843c0.217,-0.298 0.62,-0.853 0.584,-1.91c-0.004,-0.166 0.029,-0.267 0.099,-0.303" style="fill:#fff;fill-rule:nonzero;"/><path d="M41.399,33.818c0.048,-0.013 0.1,-0.003 0.14,0.029c0.135,0.097 0.224,0.33 0.226,0.593c0.002,0.224 -0.054,0.574 -0.333,0.958c-0.205,0.283 -0.447,0.449 -0.592,0.548c-0.044,0.028 -0.085,0.06 -0.123,0.095c-0.008,0.01 -0.016,0.022 0.004,0.055c0.053,0.072 0.119,0.133 0.196,0.181l1.795,1.314c0.18,0.13 0.175,0.219 0.139,0.269c-0.03,0.052 -0.158,0.532 -0.206,0.713l-0.021,0.077c-0.011,0.041 -0.042,0.15 -0.134,0.17c-0.084,0.018 -0.174,-0.041 -0.314,-0.205l-1.657,-1.918c-0.039,-0.044 -0.096,-0.068 -0.154,-0.064c-0.102,0.004 -0.388,0.082 -0.848,0.716c-0.434,0.598 -0.38,1.077 -0.342,1.427l0.003,0.027l-0.016,0.022c-0.023,0.027 -0.057,0.042 -0.092,0.04c-0.039,-0.003 -0.077,-0.016 -0.108,-0.039c-0.259,-0.188 -0.602,-1.29 0.024,-2.152c0.32,-0.439 0.742,-0.815 1.114,-1.145c0.294,-0.261 0.549,-0.486 0.698,-0.693c0.235,-0.323 0.315,-0.536 0.374,-0.692c0.035,-0.092 0.063,-0.166 0.11,-0.232c0.027,-0.044 0.068,-0.077 0.117,-0.094" style="fill:#fff;fill-rule:nonzero;"/><path d="M7.116,24.8c0.55,-0 0.988,0.376 0.988,1.112c-0,0.946 -0.711,1.718 -1.666,1.867c0.57,-0.36 0.951,-0.813 1.05,-1.408c-0.147,0.244 -0.414,0.392 -0.699,0.388c-0.446,-0 -0.755,-0.355 -0.755,-0.835c-0,-0.71 0.532,-1.124 1.082,-1.124m-0.186,0.322c-0.16,-0 -0.293,0.074 -0.293,0.637c-0,0.339 0.153,0.57 0.397,0.57c0.165,-0 0.36,-0.05 0.479,-0.322c-0.017,-0.52 -0.273,-0.885 -0.583,-0.885" style="fill:#fff;"/><path d="M44.993,24.837c0.26,0.016 1.144,0.016 1.516,0.016c-0.062,0.372 -0.273,0.686 -0.682,1.079c0.355,0.09 0.773,0.384 0.773,0.703c-0,0.545 -0.583,1.131 -1.02,1.131c-0.41,-0 -0.864,-0.347 -1.004,-0.364c0.078,-0.214 0.21,-0.466 0.363,-0.615c0.488,0.417 0.707,0.533 0.913,0.533c0,-0 0.001,-0 0.001,-0c0.14,-0 0.255,-0.116 0.255,-0.255c-0,-0.005 -0,-0.01 -0,-0.015c-0,-0.28 -0.484,-0.594 -0.905,-0.747c0.318,-0.277 0.541,-0.59 0.707,-0.85l-1.26,0.003c0.058,-0.227 0.178,-0.512 0.343,-0.62m2.053,0.005c0.153,0.012 0.892,0.012 1.669,0.012c-0.008,0.77 -0.93,1.47 -0.93,2.231l-0,0.001c-0,0.145 0.071,0.29 0.186,0.405c-0.132,0.203 -0.297,0.26 -0.45,0.26c-0.17,-0 -0.29,-0.112 -0.29,-0.335c-0,-0.677 0.831,-1.545 1.004,-1.97l-1.52,-0c0.037,-0.224 0.169,-0.5 0.33,-0.604m-42.221,-0.049c0.54,-0 0.897,0.28 0.897,0.801c-0,0.434 -0.355,0.83 -0.988,1.455l0.095,-0c0.488,-0 0.773,-0.013 1.008,-0.05c-0.08,0.471 -0.285,0.715 -0.65,0.715c-0.255,-0 -1.082,-0.04 -1.375,-0.04c0.942,-0.972 1.319,-1.443 1.319,-1.852c-0,-0.351 -0.22,-0.52 -0.591,-0.52c-0.215,-0 -0.463,0.082 -0.645,0.23c0.12,-0.4 0.463,-0.74 0.93,-0.74m35.366,-13.276c0.287,-0.245 0.79,-0.308 1.38,-0.173c0.53,0.12 1.028,0.382 1.27,0.665c0.058,0.07 0.098,0.184 0.12,0.351c0.04,0.305 0.215,0.943 0.3,1.055c0.02,0.006 0.096,0.022 0.244,0.045c0.23,0.035 0.28,0.064 0.298,0.084c0.077,0.09 0.061,0.137 0.034,0.16c-0.032,0.027 -0.2,0.018 -0.94,-0.051c-0.228,-0.02 -0.444,-0.041 -0.589,-0.05l-0.022,-0.002l-0.004,-0.023l-0.043,-0.256c-0.07,-0.433 -0.157,-0.974 -0.341,-1.19c-0.406,-0.477 -0.762,-0.296 -0.939,-0.146c-0.111,0.096 -0.178,0.235 -0.184,0.382c-0.019,0.244 0.078,0.675 0.647,1.334l0.635,0.733c0.314,0.362 0.483,0.833 0.451,1.262c-0.019,0.312 -0.164,0.604 -0.402,0.807c-0.392,0.334 -0.906,0.45 -1.315,0.45c-0.067,-0 -0.129,-0.003 -0.187,-0.008c-0.251,-0.024 -0.445,-0.093 -0.52,-0.185c-0.167,-0.214 -0.206,-0.271 -0.167,-0.304l0.007,-0.007c0.032,-0.028 0.07,-0.062 0.17,-0.028c0.535,0.175 0.979,0.057 1.248,-0.332c0.379,-0.548 0.294,-1.453 -0.193,-2.06l-0.72,-0.898c-0.264,-0.318 -0.882,-1.066 -0.237,-1.615m-27.212,0.011c0.328,-0.018 0.573,0.151 0.728,0.281c0.844,0.704 1.456,2.507 0.093,4.141c-0.356,0.427 -1.079,0.958 -1.954,0.958c-0.5,-0 -1.052,-0.174 -1.613,-0.642l-0.02,-0.018c-0.171,-0.142 -0.405,-0.335 -0.693,-1.27c-0.071,-0.234 -0.128,-0.42 -0.06,-0.518c0.025,-0.038 0.066,-0.06 0.124,-0.065c0.018,-0 0.184,0.04 0.24,0.161c0.138,0.281 0.433,0.604 0.925,1.015c0.357,0.298 0.91,0.489 1.445,0.498l0.044,-0c0.619,-0 1.16,-0.242 1.529,-0.683c0.48,-0.575 0.29,-1.82 -0.75,-2.687c-0.279,-0.232 -0.709,-0.323 -1.08,0.12c-0.04,0.05 -0.081,0.111 -0.123,0.183c-0.06,0.098 -0.137,0.22 -0.248,0.353c-0.042,0.05 -0.076,0.08 -0.103,0.09c-0.046,0.017 -0.08,-0.01 -0.09,-0.02c-0.067,-0.055 -0.031,-0.25 0.024,-0.416c0.047,-0.138 0.16,-0.414 0.4,-0.702c0.413,-0.495 0.81,-0.757 1.182,-0.779m24.168,1.434c0.136,-0.115 0.338,-0.152 0.554,-0.101c0.167,0.04 0.42,0.149 0.672,0.445c0.504,0.599 0.857,1.312 1.03,2.077c0.139,0.6 0.128,1.067 0.06,1.124c-0.005,0.006 -0.012,0.009 -0.019,0.008c-0.043,-0.009 -0.084,-0.025 -0.121,-0.047c-0.008,-0.005 -0.85,-0.433 -0.839,-0.648l0.01,-0.279c0.016,-0.34 0.03,-1.489 -0.428,-2.026c-0.072,-0.088 -0.167,-0.151 -0.275,-0.183c-0.076,-0.02 -0.149,-0.013 -0.184,0.018c-0.365,0.31 -0.168,0.88 -0.1,1.005c0.043,0.078 0.093,0.187 0.035,0.237c-0.026,0.023 -0.071,0.042 -0.14,0.01c-0.063,-0.035 -0.117,-0.082 -0.159,-0.138c-0.129,-0.15 -0.23,-0.454 -0.258,-0.774c-0.03,-0.343 0.03,-0.615 0.162,-0.728" style="fill:#fff;fill-rule:nonzero;"/><path d="M39.184,11.609c0.137,-0.053 0.211,-0.01 0.25,0.035c0.013,0.015 0.03,0.048 -0,0.092c-0.014,0.023 -0.037,0.042 -0.053,0.056c-0.135,0.115 -0.206,0.353 -0.185,0.621c0.025,0.319 0.173,0.651 0.416,0.937l0.963,1.145c0.129,0.152 0.32,0.427 0.43,0.703c0.138,0.339 0.12,0.595 -0.05,0.739c-0.071,0.055 -0.159,0.084 -0.249,0.081c-0.079,-0.002 -0.156,-0.016 -0.23,-0.04c-0.176,-0.058 -0.333,-0.161 -0.457,-0.297c-0.048,-0.056 -0.092,-0.137 -0.07,-0.194c0.009,-0.027 0.03,-0.043 0.063,-0.047c0.11,-0.016 0.178,-0.04 0.225,-0.08c0.082,-0.07 0.177,-0.508 -0.207,-0.973l-0.65,-0.775l-0,-0.002c-0.733,-0.896 -0.893,-1.468 -0.501,-1.801c0.116,-0.1 0.217,-0.167 0.305,-0.2m-27.969,-1.054c0.037,-0.045 0.1,-0.083 0.186,-0.012c0.062,0.052 0.08,0.181 0.066,0.445c-0.004,0.035 -0.002,0.105 -0,0.186c0.004,0.279 0.002,0.41 -0.029,0.445c-0.064,0.078 -0.367,0.246 -0.788,0.475c-0.223,0.121 -0.476,0.259 -0.503,0.29c-0.03,0.027 -0.05,0.063 -0.058,0.102c-0.006,0.026 -0.013,0.053 -0.02,0.08c-0.021,0.072 -0.036,0.118 0.03,0.2l1.816,2.224c0.054,0.069 0.196,0.25 0.078,0.392c-0.026,0.032 -0.065,0.052 -0.106,0.054c-0.04,-0 -0.088,-0.018 -0.147,-0.067l-1.993,-1.664l0.001,-0c-0.09,-0.076 -0.192,-0.218 -0.173,-0.472c0.015,-0.2 0.024,-0.37 0.03,-0.521c0.011,-0.22 0.02,-0.392 0.044,-0.544c0.03,-0.185 0.054,-0.238 0.083,-0.259c0.1,-0.062 0.85,-0.557 1.075,-0.827c0.055,-0.066 0.171,-0.217 0.264,-0.34c0.066,-0.087 0.123,-0.163 0.144,-0.187m3.826,-3.002c0.5,-0.25 1.469,-0.16 1.962,0.826l1.116,2.236c0.088,0.176 0.152,0.286 0.19,0.328c0.03,0.034 0.078,0.053 0.142,0.057c0.623,0.031 0.812,0.031 0.875,-0c0.152,-0.077 0.227,-0.265 0.292,-0.432c0.062,-0.158 0.121,-0.308 0.241,-0.349c0.021,-0.009 0.046,-0.002 0.061,0.016c0.061,0.07 0.021,0.394 -0.185,0.758c-0.12,0.214 -0.166,0.395 -0.195,0.516c-0.03,0.12 -0.052,0.208 -0.135,0.189c-0.847,-0.214 -1.482,0.03 -1.885,0.231c-0.311,0.156 -0.552,0.501 -0.68,0.686c-0.067,0.094 -0.094,0.133 -0.118,0.145c-0.017,0.009 -0.035,0.014 -0.054,0.014c-0.021,-0.001 -0.04,-0.008 -0.056,-0.019c-0.034,-0.026 -0.068,-0.092 -0.034,-0.25c0.074,-0.387 0.37,-0.673 0.587,-0.881c0.123,-0.118 0.238,-0.23 0.213,-0.28c-0.382,-0.765 -1.178,-0.846 -1.704,-0.9c-0.259,-0.026 -0.43,-0.043 -0.475,-0.134c-0.03,-0.059 -0.024,-0.117 0.02,-0.175c0.056,-0.066 0.127,-0.119 0.206,-0.154c0.27,-0.135 0.527,-0.11 0.733,-0.09c0.148,0.015 0.275,0.028 0.37,-0.02c-0,-0.005 0.001,-0.041 -0.072,-0.189l-0.5,-1c-0.285,-0.573 -0.665,-0.747 -1.126,-0.517c-0.112,0.059 -0.229,0.107 -0.35,0.145l0.002,-0.003c-0.041,0.01 -0.1,0.017 -0.124,-0.033c-0.09,-0.18 0.288,-0.524 0.683,-0.721" style="fill:#fff;fill-rule:nonzero;"/><path d="M17.387,6.207c0.124,-0.062 0.262,-0.013 0.511,0.076c0.086,0.03 0.172,0.062 0.257,0.094c0.168,0.063 0.341,0.127 0.514,0.181c0.028,0.01 0.082,0.025 0.149,0.045c0.5,0.15 0.66,0.21 0.681,0.253c0.07,0.14 -0.024,0.314 -0.124,0.498c-0.034,0.058 -0.064,0.117 -0.092,0.177c-0.076,0.161 -0.139,0.275 -0.19,0.366c-0.118,0.212 -0.146,0.263 -0.065,0.426c0.049,0.098 0.173,0.094 0.388,0.08c0.18,-0.012 0.314,0.03 0.687,0.209c0.424,0.222 0.782,0.553 1.037,0.96c0.089,0.135 0.122,0.176 0.172,0.151c0.065,-0.032 0.132,-0.119 0.19,-0.196c0.052,-0.066 0.093,-0.12 0.13,-0.138c0.057,-0.029 0.181,-0.015 0.216,0.053c0.012,0.024 0.036,0.073 -0.219,0.441l-0.146,0.22c-0.159,0.245 -0.323,0.497 -0.417,0.543c-0.042,0.023 -0.089,0.035 -0.137,0.037c-0.12,-0 -0.25,-0.09 -0.48,-0.31c-0.05,-0.052 -0.098,-0.105 -0.143,-0.16c-0.287,-0.336 -0.886,-1.035 -1.433,-1.124l-0.048,-0.011c-0.162,-0.056 -0.34,-0.045 -0.493,0.03c-0.028,0.014 -0.052,0.036 -0.074,0.055c-0.034,0.03 -0.066,0.058 -0.104,0.05c-0.03,-0.004 -0.056,-0.031 -0.08,-0.081c-0.052,-0.103 0.674,-1.194 0.682,-1.205c0.019,-0.03 0.023,-0.067 0.01,-0.1c-0.017,-0.048 -0.051,-0.087 -0.095,-0.11c-0.018,-0.006 -0.037,-0.011 -0.058,-0.015c-0.095,-0.02 -0.254,-0.055 -0.741,-0.327c-0.248,-0.138 -0.543,-0.293 -0.616,-0.256c-0.031,0.016 -0.065,0.062 -0.117,0.137c-0.09,0.134 -0.123,0.176 -0.158,0.193l-0.003,-0c-0.078,0.04 -0.13,0.008 -0.148,-0.031c-0.034,-0.069 -0.023,-0.175 0.144,-0.476c0.069,-0.124 0.136,-0.254 0.194,-0.37c0.132,-0.255 0.181,-0.347 0.219,-0.365m6.473,-1.691c0.043,-0.001 0.114,0.077 0.127,0.132l0.003,0.01l-0.042,0.079c-0.476,0.592 -0.711,1.342 -0.66,2.1c0.04,0.65 0.295,1.241 0.72,1.665c0.462,0.461 1.077,0.683 1.78,0.64l0.045,-0.002c0.418,-0.024 1.049,-0.06 1.811,-0.737c0.07,-0.066 0.161,-0.106 0.258,-0.113c0.066,-0.004 0.109,0.083 0.114,0.171c0.017,0.276 -0.792,1.494 -2.55,1.6c-0.672,0.045 -1.337,-0.159 -1.867,-0.572c-0.59,-0.47 -0.93,-1.18 -0.982,-2.052c-0.093,-1.527 0.907,-2.9 1.243,-2.92m14.522,3.557c0.045,-0.003 0.09,0.011 0.127,0.038c0.041,0.027 0.072,0.068 0.085,0.117l0.124,0.561l0.008,0.04c0.012,0.05 0.021,0.093 -0.008,0.136c-0.029,0.043 -0.08,0.059 -0.125,0.067l-0.977,0.268c-0.033,0.009 -0.066,0.014 -0.099,0.016c-0.069,-0 -0.118,-0.028 -0.147,-0.084c-0.069,-0.107 0.035,-0.194 0.08,-0.231l0.3,-0.266c0.021,-0.015 -0,-0.066 -0.01,-0.095l-0.007,-0.02l-0.098,-0.243c-0.029,-0.044 -0.026,-0.092 0.01,-0.144c0.03,-0.044 0.092,-0.062 0.149,-0.072l0.588,-0.088Z" style="fill:#fff;fill-rule:nonzero;"/><path d="M27.217,4.142c0.108,0.003 0.171,0.08 0.174,0.134c0.007,0.12 -0.203,0.361 -0.524,0.715c-0.228,0.252 -0.487,0.537 -0.481,0.63c0.006,0.095 0.183,0.09 0.453,0.075c0.414,-0.025 0.479,-0.075 0.52,-0.136c0.056,-0.082 0.12,-0.126 0.19,-0.13c0.105,-0.007 0.13,0.053 0.134,0.104c0.002,0.04 -0.034,0.116 -0.218,0.345c-0.082,0.117 -0.149,0.244 -0.198,0.378c-0.04,0.097 -0.073,0.173 -0.105,0.21l-0.014,0.017c-0.043,0.053 -0.133,0.165 -0.35,0.178l-1.189,0.073l-0.034,0.003c-0.06,0.005 -0.143,0.014 -0.204,-0.037c-0.047,-0.039 -0.073,-0.105 -0.077,-0.199c-0.012,-0.195 0.29,-0.753 0.673,-1.246c0.028,-0.029 0.044,-0.067 0.044,-0.107c-0.003,-0.031 -0.093,-0.079 -0.132,-0.099c-0.27,-0.146 -0.5,-0.221 -0.583,-0.216c-0.018,0.002 -0.083,0.076 -0.126,0.299l-0.46,2.342c-0.025,0.131 -0.076,0.307 -0.24,0.317l-0.014,-0c-0.06,0.003 -0.116,-0.029 -0.143,-0.082c-0.022,-0.042 -0.033,-0.088 -0.033,-0.134l-0,0.002l-0.108,-1.632c-0.012,-0.221 -0.004,-0.401 0.23,-0.692c0.11,-0.137 0.34,-0.352 0.583,-0.58c0.096,-0.09 0.193,-0.18 0.283,-0.266c0.036,-0.037 0.068,-0.07 0.094,-0.098c0.06,-0.063 0.096,-0.102 0.135,-0.104c0.038,-0.003 0.08,0.02 0.132,0.05c0.013,0.008 0.028,0.017 0.044,0.025l0.02,0.01c0.101,0.05 0.41,0.206 0.898,0.177c0.198,-0.013 0.383,-0.102 0.517,-0.249c0.041,-0.04 0.07,-0.068 0.1,-0.076l0.009,-0" style="fill:#fff;fill-rule:nonzero;"/><path d="M26.33,1.904c6.477,-0.009 12.697,2.567 17.272,7.154c2.231,2.223 4.009,4.86 5.234,7.763c1.272,3.008 1.925,6.242 1.92,9.509c0.008,6.477 -2.569,12.697 -7.154,17.272c-2.225,2.231 -4.862,4.009 -7.764,5.234c-3.008,1.272 -6.242,1.925 -9.508,1.92c-6.478,0.008 -12.698,-2.568 -17.272,-7.154c-2.232,-2.225 -4.01,-4.862 -5.235,-7.764c-1.273,-3.008 -1.926,-6.242 -1.92,-9.508c-0.009,-6.478 2.567,-12.698 7.154,-17.272c2.224,-2.232 4.861,-4.01 7.764,-5.235c3.008,-1.273 6.242,-1.926 9.509,-1.92m-0,0.689c-13.089,-0 -23.737,10.648 -23.737,23.737c-0,13.089 10.647,23.738 23.737,23.738c13.09,-0 23.736,-10.65 23.736,-23.737c-0,-13.089 -10.647,-23.737 -23.736,-23.737" style="fill:#fff;"/><path d="M26.33,0.83c6.762,-0.011 13.256,2.68 18.031,7.47c4.787,4.775 7.477,11.268 7.469,18.03c0.009,6.762 -2.682,13.256 -7.47,18.031c-4.774,4.789 -11.268,7.479 -18.03,7.469c-6.762,0.009 -13.256,-2.681 -18.031,-7.468c-2.33,-2.323 -4.187,-5.076 -5.466,-8.106c-1.328,-3.141 -2.009,-6.517 -2.003,-9.926c-0.01,-6.763 2.68,-13.257 7.47,-18.031c4.774,-4.789 11.268,-7.479 18.03,-7.469m-0,0.348c-13.869,-0 -25.151,11.283 -25.151,25.152c-0,13.868 11.282,25.15 25.15,25.15c13.869,-0 25.152,-11.282 25.152,-25.15c-0,-13.869 -11.282,-25.151 -25.151,-25.151" style="fill:#fff;"/></g></svg>